<mxfile host="app.diagrams.net" modified="2020-10-01T06:27:09.284Z" agent="5.0 (Windows NT 10.0; Win64; x64) AppleWebKit/537.36 (KHTML, like Gecko) Chrome/85.0.4183.121 Safari/537.36" etag="xyjn2U6t2tB0X2jvlsCx" version="13.7.7" type="github" pages="3">
  <diagram id="muJ7DQJSpck_CuVEwn8b" name="Page-1">
    <mxGraphModel dx="2249" dy="762" grid="1" gridSize="10" guides="1" tooltips="1" connect="1" arrows="1" fold="1" page="1" pageScale="1" pageWidth="827" pageHeight="1169" math="0" shadow="0">
      <root>
        <mxCell id="0" />
        <mxCell id="1" parent="0" />
        <mxCell id="n8EYonq1ptt9BPSvWl5D-1" value="" style="whiteSpace=wrap;html=1;aspect=fixed;" vertex="1" parent="1">
          <mxGeometry x="-720" width="320" height="320" as="geometry" />
        </mxCell>
        <mxCell id="n8EYonq1ptt9BPSvWl5D-2" value="" style="verticalLabelPosition=bottom;verticalAlign=top;html=1;shape=trapezoid;perimeter=trapezoidPerimeter;whiteSpace=wrap;size=0.23;arcSize=10;flipV=1;strokeColor=#B09500;fontColor=#ffffff;fillColor=#FFE100;" vertex="1" parent="1">
          <mxGeometry x="-690" y="100" width="240" height="190" as="geometry" />
        </mxCell>
        <mxCell id="n8EYonq1ptt9BPSvWl5D-3" value="" style="shape=document;whiteSpace=wrap;html=1;boundedLbl=1;rotation=-180;" vertex="1" parent="1">
          <mxGeometry x="-685" width="230" height="100" as="geometry" />
        </mxCell>
        <mxCell id="n8EYonq1ptt9BPSvWl5D-4" value="&lt;font face=&quot;Times New Roman&quot; style=&quot;font-size: 20px&quot;&gt;Inició de sesión&amp;nbsp;&lt;/font&gt;" style="rounded=0;whiteSpace=wrap;html=1;fillColor=#FFE100;gradientColor=none;" vertex="1" parent="1">
          <mxGeometry x="-636.25" y="240" width="132.5" height="30" as="geometry" />
        </mxCell>
        <mxCell id="n8EYonq1ptt9BPSvWl5D-5" value="&lt;font face=&quot;Times New Roman&quot; style=&quot;font-size: 21px&quot;&gt;Contraseña&lt;/font&gt;" style="rounded=0;whiteSpace=wrap;html=1;fillColor=#FFE100;gradientColor=none;" vertex="1" parent="1">
          <mxGeometry x="-636.25" y="180" width="130" height="40" as="geometry" />
        </mxCell>
        <mxCell id="n8EYonq1ptt9BPSvWl5D-6" value="&lt;font face=&quot;Times New Roman&quot; style=&quot;font-size: 20px&quot;&gt;&lt;font style=&quot;font-size: 20px&quot;&gt;Usuario&lt;/font&gt;&lt;font style=&quot;font-size: 20px&quot;&gt;&amp;nbsp;&lt;/font&gt;&lt;/font&gt;" style="rounded=0;whiteSpace=wrap;html=1;fillColor=#FFE100;gradientColor=none;fontSize=15;" vertex="1" parent="1">
          <mxGeometry x="-636.25" y="110" width="126.25" height="40" as="geometry" />
        </mxCell>
        <mxCell id="n8EYonq1ptt9BPSvWl5D-7" value="&lt;font style=&quot;font-size: 32px&quot;&gt;Logo&lt;/font&gt;" style="ellipse;whiteSpace=wrap;html=1;fillColor=#FFE100;gradientColor=none;fontSize=15;" vertex="1" parent="1">
          <mxGeometry x="-665" y="30" width="175" height="70" as="geometry" />
        </mxCell>
      </root>
    </mxGraphModel>
  </diagram>
  <diagram id="yRcaqAPpMVTt5zIErOC4" name="Page-2">
    <mxGraphModel dx="2249" dy="762" grid="1" gridSize="10" guides="1" tooltips="1" connect="1" arrows="1" fold="1" page="1" pageScale="1" pageWidth="827" pageHeight="1169" math="0" shadow="0">
      <root>
        <mxCell id="53zsVMegrneDWhN2PPhy-0" />
        <mxCell id="53zsVMegrneDWhN2PPhy-1" parent="53zsVMegrneDWhN2PPhy-0" />
        <mxCell id="53zsVMegrneDWhN2PPhy-2" value="" style="whiteSpace=wrap;html=1;aspect=fixed;" vertex="1" parent="53zsVMegrneDWhN2PPhy-1">
          <mxGeometry x="-552.5" y="460" width="320" height="320" as="geometry" />
        </mxCell>
        <mxCell id="53zsVMegrneDWhN2PPhy-3" value="" style="shape=offPageConnector;whiteSpace=wrap;html=1;fillColor=#FFE100;gradientColor=none;fontSize=31;" vertex="1" parent="53zsVMegrneDWhN2PPhy-1">
          <mxGeometry x="-518.11" y="550" width="260" height="150" as="geometry" />
        </mxCell>
        <mxCell id="53zsVMegrneDWhN2PPhy-4" value="" style="shape=loopLimit;whiteSpace=wrap;html=1;fillColor=#FFE100;gradientColor=none;fontSize=31;rotation=-180;" vertex="1" parent="53zsVMegrneDWhN2PPhy-1">
          <mxGeometry x="-516.23" y="640" width="256.24" height="120" as="geometry" />
        </mxCell>
        <mxCell id="53zsVMegrneDWhN2PPhy-5" value="" style="shape=document;whiteSpace=wrap;html=1;boundedLbl=1;rotation=-180;verticalAlign=middle;" vertex="1" parent="53zsVMegrneDWhN2PPhy-1">
          <mxGeometry x="-517.5" y="470" width="255" height="80" as="geometry" />
        </mxCell>
        <mxCell id="53zsVMegrneDWhN2PPhy-6" value="&lt;font style=&quot;font-size: 25px&quot;&gt;Logo&lt;/font&gt;" style="ellipse;whiteSpace=wrap;html=1;fillColor=#FFE100;gradientColor=none;fontSize=15;" vertex="1" parent="53zsVMegrneDWhN2PPhy-1">
          <mxGeometry x="-465.75" y="490" width="150" height="40" as="geometry" />
        </mxCell>
        <mxCell id="53zsVMegrneDWhN2PPhy-7" value="" style="rounded=1;whiteSpace=wrap;html=1;fillColor=#FFE100;gradientColor=none;fontSize=31;" vertex="1" parent="53zsVMegrneDWhN2PPhy-1">
          <mxGeometry x="-499.99" y="570" width="214.99" height="40" as="geometry" />
        </mxCell>
        <mxCell id="53zsVMegrneDWhN2PPhy-8" value="" style="rounded=1;whiteSpace=wrap;html=1;fillColor=#FFE100;gradientColor=none;fontSize=31;" vertex="1" parent="53zsVMegrneDWhN2PPhy-1">
          <mxGeometry x="-505.25" y="650" width="220.25" height="40" as="geometry" />
        </mxCell>
        <mxCell id="53zsVMegrneDWhN2PPhy-9" value="&lt;span style=&quot;font-family: &amp;#34;times new roman&amp;#34;&quot;&gt;&lt;font style=&quot;font-size: 30px&quot;&gt;Inició de sesión&amp;nbsp;&lt;/font&gt;&lt;/span&gt;" style="rounded=1;whiteSpace=wrap;html=1;fillColor=#FFE100;gradientColor=none;fontSize=31;" vertex="1" parent="53zsVMegrneDWhN2PPhy-1">
          <mxGeometry x="-504.99" y="700" width="219.99" height="40" as="geometry" />
        </mxCell>
        <mxCell id="53zsVMegrneDWhN2PPhy-10" value="&lt;font style=&quot;font-size: 25px&quot;&gt;Usuario *&lt;/font&gt;" style="text;html=1;strokeColor=none;fillColor=none;align=center;verticalAlign=middle;whiteSpace=wrap;rounded=0;fontSize=30;" vertex="1" parent="53zsVMegrneDWhN2PPhy-1">
          <mxGeometry x="-518.11" y="550" width="140" height="20" as="geometry" />
        </mxCell>
        <mxCell id="53zsVMegrneDWhN2PPhy-11" value="&lt;font style=&quot;font-size: 25px;&quot;&gt;Contraseña*&lt;/font&gt;" style="text;html=1;strokeColor=none;fillColor=none;align=center;verticalAlign=middle;whiteSpace=wrap;rounded=0;fontSize=25;" vertex="1" parent="53zsVMegrneDWhN2PPhy-1">
          <mxGeometry x="-460" y="620" width="60" height="20" as="geometry" />
        </mxCell>
      </root>
    </mxGraphModel>
  </diagram>
  <diagram id="8UAXyRz9NPve90K7UF04" name="Page-3">
    <mxGraphModel dx="2249" dy="762" grid="1" gridSize="10" guides="1" tooltips="1" connect="1" arrows="1" fold="1" page="1" pageScale="1" pageWidth="827" pageHeight="1169" math="0" shadow="0">
      <root>
        <mxCell id="8B5hFG7g2NQKuqT-S-WO-0" />
        <mxCell id="8B5hFG7g2NQKuqT-S-WO-1" parent="8B5hFG7g2NQKuqT-S-WO-0" />
        <mxCell id="8B5hFG7g2NQKuqT-S-WO-2" value="" style="whiteSpace=wrap;html=1;aspect=fixed;" vertex="1" parent="8B5hFG7g2NQKuqT-S-WO-1">
          <mxGeometry x="-510" y="350" width="320" height="320" as="geometry" />
        </mxCell>
        <mxCell id="8B5hFG7g2NQKuqT-S-WO-3" value="&lt;font style=&quot;font-size: 32px&quot;&gt;Logo&lt;/font&gt;" style="ellipse;whiteSpace=wrap;html=1;fontSize=15;" vertex="1" parent="8B5hFG7g2NQKuqT-S-WO-1">
          <mxGeometry x="-430" y="400" width="190" height="60" as="geometry" />
        </mxCell>
        <mxCell id="8B5hFG7g2NQKuqT-S-WO-4" value="&lt;span style=&quot;color: rgba(0 , 0 , 0 , 0) ; font-family: monospace ; font-size: 0px&quot;&gt;%3CmxGraphModel%3E%3Croot%3E%3CmxCell%20id%3D%220%22%2F%3E%3CmxCell%20id%3D%221%22%20parent%3D%220%22%2F%3E%3CmxCell%20id%3D%222%22%20value%3D%22%26lt%3Bfont%20style%3D%26quot%3Bfont-size%3A%2045px%26quot%3B%20face%3D%26quot%3BTimes%20New%20Roman%26quot%3B%26gt%3BContrase%C3%B1a%26lt%3B%2Ffont%26gt%3B%22%20style%3D%22rounded%3D0%3BwhiteSpace%3Dwrap%3Bhtml%3D1%3BfillColor%3D%23FFE100%3BgradientColor%3Dnone%3B%22%20vertex%3D%221%22%20parent%3D%221%22%3E%3CmxGeometry%20x%3D%22-420%22%20y%3D%22680%22%20width%3D%22460%22%20height%3D%22100%22%20as%3D%22geometry%22%2F%3E%3C%2FmxCell%3E%3CmxCell%20id%3D%223%22%20value%3D%22%26lt%3Bfont%20face%3D%26quot%3BTimes%20New%20Roman%26quot%3B%26gt%3B%26lt%3Bfont%20style%3D%26quot%3Bfont-size%3A%2045px%26quot%3B%26gt%3BUsuario%26lt%3B%2Ffont%26gt%3B%26lt%3Bfont%20style%3D%26quot%3Bfont-size%3A%2030px%26quot%3B%26gt%3B%26amp%3Bnbsp%3B%26lt%3B%2Ffont%26gt%3B%26lt%3B%2Ffont%26gt%3B%22%20style%3D%22rounded%3D0%3BwhiteSpace%3Dwrap%3Bhtml%3D1%3BfillColor%3D%23FFE100%3BgradientColor%3Dnone%3BfontSize%3D15%3B%22%20vertex%3D%221%22%20parent%3D%221%22%3E%3CmxGeometry%20x%3D%22-410%22%20y%3D%22500%22%20width%3D%22460%22%20height%3D%22100%22%20as%3D%22geometry%22%2F%3E%3C%2FmxCell%3E%3C%2Froot%3E%3C%2FmxGraphModel%3E&lt;/span&gt;&lt;span style=&quot;color: rgba(0 , 0 , 0 , 0) ; font-family: monospace ; font-size: 0px&quot;&gt;%3CmxGraphModel%3E%3Croot%3E%3CmxCell%20id%3D%220%22%2F%3E%3CmxCell%20id%3D%221%22%20parent%3D%220%22%2F%3E%3CmxCell%20id%3D%222%22%20value%3D%22%26lt%3Bfont%20style%3D%26quot%3Bfont-size%3A%2045px%26quot%3B%20face%3D%26quot%3BTimes%20New%20Roman%26quot%3B%26gt%3BContrase%C3%B1a%26lt%3B%2Ffont%26gt%3B%22%20style%3D%22rounded%3D0%3BwhiteSpace%3Dwrap%3Bhtml%3D1%3BfillColor%3D%23FFE100%3BgradientColor%3Dnone%3B%22%20vertex%3D%221%22%20parent%3D%221%22%3E%3CmxGeometry%20x%3D%22-420%22%20y%3D%22680%22%20width%3D%22460%22%20height%3D%22100%22%20as%3D%22geometry%22%2F%3E%3C%2FmxCell%3E%3CmxCell%20id%3D%223%22%20value%3D%22%26lt%3Bfont%20face%3D%26quot%3BTimes%20New%20Roman%26quot%3B%26gt%3B%26lt%3Bfont%20style%3D%26quot%3Bfont-size%3A%2045px%26quot%3B%26gt%3BUsuario%26lt%3B%2Ffont%26gt%3B%26lt%3Bfont%20style%3D%26quot%3Bfont-size%3A%2030px%26quot%3B%26gt%3B%26amp%3Bnbsp%3B%26lt%3B%2Ffont%26gt%3B%26lt%3B%2Ffont%26gt%3B%22%20style%3D%22rounded%3D0%3BwhiteSpace%3Dwrap%3Bhtml%3D1%3BfillColor%3D%23FFE100%3BgradientColor%3Dnone%3BfontSize%3D15%3B%22%20vertex%3D%221%22%20parent%3D%221%22%3E%3CmxGeometry%20x%3D%22-410%22%20y%3D%22500%22%20width%3D%22460%22%20height%3D%22100%22%20as%3D%22geometry%22%2F%3E%3C%2FmxCell%3E%3C%2Froot%3E%3C%2FmxGraphModel%3E&lt;/span&gt;&lt;span style=&quot;color: rgba(0 , 0 , 0 , 0) ; font-family: monospace ; font-size: 0px&quot;&gt;%3CmxGraphModel%3E%3Croot%3E%3CmxCell%20id%3D%220%22%2F%3E%3CmxCell%20id%3D%221%22%20parent%3D%220%22%2F%3E%3CmxCell%20id%3D%222%22%20value%3D%22%26lt%3Bfont%20style%3D%26quot%3Bfont-size%3A%2045px%26quot%3B%20face%3D%26quot%3BTimes%20New%20Roman%26quot%3B%26gt%3BContrase%C3%B1a%26lt%3B%2Ffont%26gt%3B%22%20style%3D%22rounded%3D0%3BwhiteSpace%3Dwrap%3Bhtml%3D1%3BfillColor%3D%23FFE100%3BgradientColor%3Dnone%3B%22%20vertex%3D%221%22%20parent%3D%221%22%3E%3CmxGeometry%20x%3D%22-420%22%20y%3D%22680%22%20width%3D%22460%22%20height%3D%22100%22%20as%3D%22geometry%22%2F%3E%3C%2FmxCell%3E%3CmxCell%20id%3D%223%22%20value%3D%22%26lt%3Bfont%20face%3D%26quot%3BTimes%20New%20Roman%26quot%3B%26gt%3B%26lt%3Bfont%20style%3D%26quot%3Bfont-size%3A%2045px%26quot%3B%26gt%3BUsuario%26lt%3B%2Ffont%26gt%3B%26lt%3Bfont%20style%3D%26quot%3Bfont-size%3A%2030px%26quot%3B%26gt%3B%26amp%3Bnbsp%3B%26lt%3B%2Ffont%26gt%3B%26lt%3B%2Ffont%26gt%3B%22%20style%3D%22rounded%3D0%3BwhiteSpace%3Dwrap%3Bhtml%3D1%3BfillColor%3D%23FFE100%3BgradientColor%3Dnone%3BfontSize%3D15%3B%22%20vertex%3D%221%22%20parent%3D%221%22%3E%3CmxGeometry%20x%3D%22-410%22%20y%3D%22500%22%20width%3D%22460%22%20height%3D%22100%22%20as%3D%22geometry%22%2F%3E%3C%2FmxCell%3E%3C%2Froot%3E%3C%2FmxGraphModel%3E&lt;/span&gt;&lt;span style=&quot;color: rgba(0 , 0 , 0 , 0) ; font-family: monospace ; font-size: 0px&quot;&gt;%3CmxGraphModel%3E%3Croot%3E%3CmxCell%20id%3D%220%22%2F%3E%3CmxCell%20id%3D%221%22%20parent%3D%220%22%2F%3E%3CmxCell%20id%3D%222%22%20value%3D%22%26lt%3Bfont%20style%3D%26quot%3Bfont-size%3A%2045px%26quot%3B%20face%3D%26quot%3BTimes%20New%20Roman%26quot%3B%26gt%3BContrase%C3%B1a%26lt%3B%2Ffont%26gt%3B%22%20style%3D%22rounded%3D0%3BwhiteSpace%3Dwrap%3Bhtml%3D1%3BfillColor%3D%23FFE100%3BgradientColor%3Dnone%3B%22%20vertex%3D%221%22%20parent%3D%221%22%3E%3CmxGeometry%20x%3D%22-420%22%20y%3D%22680%22%20width%3D%22460%22%20height%3D%22100%22%20as%3D%22geometry%22%2F%3E%3C%2FmxCell%3E%3CmxCell%20id%3D%223%22%20value%3D%22%26lt%3Bfont%20face%3D%26quot%3BTimes%20New%20Roman%26quot%3B%26gt%3B%26lt%3Bfont%20style%3D%26quot%3Bfont-size%3A%2045px%26quot%3B%26gt%3BUsuario%26lt%3B%2Ffont%26gt%3B%26lt%3Bfont%20style%3D%26quot%3Bfont-size%3A%2030px%26quot%3B%26gt%3B%26amp%3Bnbsp%3B%26lt%3B%2Ffont%26gt%3B%26lt%3B%2Ffont%26gt%3B%22%20style%3D%22rounded%3D0%3BwhiteSpace%3Dwrap%3Bhtml%3D1%3BfillColor%3D%23FFE100%3BgradientColor%3Dnone%3BfontSize%3D15%3B%22%20vertex%3D%221%22%20parent%3D%221%22%3E%3CmxGeometry%20x%3D%22-410%22%20y%3D%22500%22%20width%3D%22460%22%20height%3D%22100%22%20as%3D%22geometry%22%2F%3E%3C%2FmxCell%3E%3C%2Froot%3E%3C%2FmxGraphModel%3E&lt;/span&gt;&lt;span style=&quot;color: rgba(0 , 0 , 0 , 0) ; font-family: monospace ; font-size: 0px&quot;&gt;%3CmxGraphModel%3E%3Croot%3E%3CmxCell%20id%3D%220%22%2F%3E%3CmxCell%20id%3D%221%22%20parent%3D%220%22%2F%3E%3CmxCell%20id%3D%222%22%20value%3D%22%26lt%3Bfont%20style%3D%26quot%3Bfont-size%3A%2045px%26quot%3B%20face%3D%26quot%3BTimes%20New%20Roman%26quot%3B%26gt%3BContrase%C3%B1a%26lt%3B%2Ffont%26gt%3B%22%20style%3D%22rounded%3D0%3BwhiteSpace%3Dwrap%3Bhtml%3D1%3BfillColor%3D%23FFE100%3BgradientColor%3Dnone%3B%22%20vertex%3D%221%22%20parent%3D%221%22%3E%3CmxGeometry%20x%3D%22-420%22%20y%3D%22680%22%20width%3D%22460%22%20height%3D%22100%22%20as%3D%22geometry%22%2F%3E%3C%2FmxCell%3E%3CmxCell%20id%3D%223%22%20value%3D%22%26lt%3Bfont%20face%3D%26quot%3BTimes%20New%20Roman%26quot%3B%26gt%3B%26lt%3Bfont%20style%3D%26quot%3Bfont-size%3A%2045px%26quot%3B%26gt%3BUsuario%26lt%3B%2Ffont%26gt%3B%26lt%3Bfont%20style%3D%26quot%3Bfont-size%3A%2030px%26quot%3B%26gt%3B%26amp%3Bnbsp%3B%26lt%3B%2Ffont%26gt%3B%26lt%3B%2Ffont%26gt%3B%22%20style%3D%22rounded%3D0%3BwhiteSpace%3Dwrap%3Bhtml%3D1%3BfillColor%3D%23FFE100%3BgradientColor%3Dnone%3BfontSize%3D15%3B%22%20vertex%3D%221%22%20parent%3D%221%22%3E%3CmxGeometry%20x%3D%22-410%22%20y%3D%22500%22%20width%3D%22460%22%20height%3D%22100%22%20as%3D%22geometry%22%2F%3E%3C%2FmxCell%3E%3C%2Froot%3E%3C%2FmxGraphModel%3E&lt;/span&gt;" style="whiteSpace=wrap;html=1;aspect=fixed;fontSize=31;" vertex="1" parent="8B5hFG7g2NQKuqT-S-WO-1">
          <mxGeometry x="-430" y="460" width="200" height="200" as="geometry" />
        </mxCell>
        <mxCell id="8B5hFG7g2NQKuqT-S-WO-5" value="&lt;font face=&quot;Times New Roman&quot; style=&quot;font-size: 25px&quot;&gt;Contraseña&lt;/font&gt;" style="rounded=0;whiteSpace=wrap;html=1;" vertex="1" parent="8B5hFG7g2NQKuqT-S-WO-1">
          <mxGeometry x="-410" y="530" width="150" height="42.5" as="geometry" />
        </mxCell>
        <mxCell id="8B5hFG7g2NQKuqT-S-WO-6" value="&lt;font face=&quot;Times New Roman&quot; style=&quot;font-size: 25px&quot;&gt;&lt;font style=&quot;font-size: 25px&quot;&gt;Usuario&lt;/font&gt;&lt;font style=&quot;font-size: 25px&quot;&gt;&amp;nbsp;&lt;/font&gt;&lt;/font&gt;" style="rounded=0;whiteSpace=wrap;html=1;fontSize=15;" vertex="1" parent="8B5hFG7g2NQKuqT-S-WO-1">
          <mxGeometry x="-410" y="470" width="150" height="40" as="geometry" />
        </mxCell>
        <mxCell id="8B5hFG7g2NQKuqT-S-WO-7" value="&lt;font style=&quot;font-size: 20px&quot;&gt;Inició de sesión&lt;/font&gt;" style="labelPosition=center;verticalLabelPosition=middle;align=center;html=1;shape=mxgraph.basic.button;dx=10;fillColor=#FFE100;gradientColor=none;fontSize=31;" vertex="1" parent="8B5hFG7g2NQKuqT-S-WO-1">
          <mxGeometry x="-422.5" y="585" width="185" height="55" as="geometry" />
        </mxCell>
        <mxCell id="8B5hFG7g2NQKuqT-S-WO-8" value="" style="verticalLabelPosition=bottom;verticalAlign=top;html=1;shape=mxgraph.basic.half_circle;fontSize=31;rotation=-165;" vertex="1" parent="8B5hFG7g2NQKuqT-S-WO-1">
          <mxGeometry x="-470" y="360" width="87" height="40" as="geometry" />
        </mxCell>
        <mxCell id="8B5hFG7g2NQKuqT-S-WO-9" value="" style="shape=loopLimit;whiteSpace=wrap;html=1;fontSize=31;rotation=-110;strokeColor=#d6b656;fillColor=#FFE100;" vertex="1" parent="8B5hFG7g2NQKuqT-S-WO-1">
          <mxGeometry x="-488.1" y="354.7" width="77" height="86.63" as="geometry" />
        </mxCell>
        <mxCell id="8B5hFG7g2NQKuqT-S-WO-10" style="edgeStyle=orthogonalEdgeStyle;rounded=0;orthogonalLoop=1;jettySize=auto;html=1;exitX=0.5;exitY=1;exitDx=0;exitDy=0;fontSize=25;" edge="1" parent="8B5hFG7g2NQKuqT-S-WO-1" source="8B5hFG7g2NQKuqT-S-WO-3" target="8B5hFG7g2NQKuqT-S-WO-3">
          <mxGeometry relative="1" as="geometry" />
        </mxCell>
      </root>
    </mxGraphModel>
  </diagram>
</mxfile>
